<svg xmlns="http://www.w3.org/2000/svg" width="48.189" height="14.173" viewBox="0 0 48.189 14.173">
  <g id="Group_2131" data-name="Group 2131" transform="translate(-17.008 -34.016)">
    <path id="Path_2602" data-name="Path 2602" d="M62.363,45.354H59.528v-8.5H56.693v8.5h0v2.834h8.5V45.354Z" fill="#0a0a0a"/>
    <rect id="Rectangle_991" data-name="Rectangle 991" width="2.835" height="2.835" transform="translate(51.024 34.016)" fill="#0a0a0a"/>
    <path id="Path_2603" data-name="Path 2603" d="M51.024,42.52v2.834h0v2.834h2.835V45.355h0V39.685H51.024Z" fill="#0a0a0a"/>
    <path id="Path_2604" data-name="Path 2604" d="M45.355,36.85H42.52v2.835h2.834V42.52H42.52V39.685H39.685v5.669h0v2.834H42.52V45.355h2.834v2.834h2.835V45.355h0V39.685H45.355Z" fill="#0a0a0a"/>
    <rect id="Rectangle_992" data-name="Rectangle 992" width="2.835" height="2.835" transform="translate(34.016 39.685)" fill="#0a0a0a"/>
    <path id="Path_2605" data-name="Path 2605" d="M31.181,39.685h2.835V36.85h-5.67v8.5h0v2.834h2.835V45.355h2.835v2.834h2.835V45.354H34.016V42.52H31.181Z" fill="#0a0a0a"/>
    <path id="Path_2606" data-name="Path 2606" d="M22.677,36.85H17.008v2.835h2.835v5.669h0v2.834h2.835V45.355h0V39.685h2.834V36.85H22.677Z" fill="#0a0a0a"/>
  </g>
</svg>
